<svg width="630" height="636" viewBox="0 0 630 636" fill="none" xmlns="http://www.w3.org/2000/svg">
<g filter="url(#filter0_f_140_3)">
<path d="M427.726 -19.8756C429.375 -29.5687 432.726 -44.8264 438.564 -56.2461C445.684 -62.9088 453.807 -72.3327 465.115 -71.0329C477.661 -69.5908 480.861 -44.7364 487.064 -37.0048C502.126 -18.2332 506.043 2.66052 511.076 25.8281C515.646 46.8663 524.472 68.1516 532.117 88.2512C538.625 105.363 541.817 122.694 550.426 139.007C556.432 150.387 564.562 159.908 574.866 167.515C590.131 178.784 603.83 191.73 621.776 198.715C637.158 204.702 655.926 207.294 672.316 208.281C688.246 209.241 705.079 213.977 721.011 212.745C744.44 210.932 761.244 242.313 764.588 262.525C767.699 281.33 743.977 292.054 729.846 298.821C696.997 314.553 659.217 321.87 624.34 331.602C575.612 345.199 523.009 354.806 472.543 359.922C434.449 363.784 396.625 370.735 358.485 373.685C333.163 375.644 299.604 376.916 275.53 367.279C249.549 356.878 261.292 333.219 273.865 316.072C293.194 289.713 323.444 277.161 347.201 255.863C359.585 244.76 372.594 235.677 384.098 223.517C392.748 214.372 401.046 204.831 409.753 195.835C422.245 182.928 421.295 158.229 422.886 141.479C424.336 126.209 425.081 110.166 424.675 94.8099C423.653 56.1581 421.17 18.6547 427.726 -19.8756Z" fill="#FF31C5" fill-opacity="0.46"/>
</g>
<g filter="url(#filter1_f_140_3)">
<path d="M476.27 86.2133C477.268 80.3458 479.296 71.1099 482.83 64.1972C487.141 60.1641 492.058 54.4596 498.903 55.2464C506.497 56.1193 508.434 71.1644 512.189 75.8445C521.306 87.2075 523.678 99.855 526.724 113.879C529.491 126.614 534.833 139.499 539.461 151.665C543.4 162.024 545.332 172.514 550.544 182.389C554.179 189.278 559.1 195.041 565.338 199.646C574.578 206.467 582.871 214.304 593.734 218.532C603.045 222.156 614.406 223.725 624.327 224.323C633.97 224.904 644.16 227.771 653.803 227.025C667.986 225.928 678.158 244.923 680.182 257.158C682.065 268.541 667.705 275.033 659.151 279.129C639.267 288.652 616.398 293.081 595.286 298.972C565.79 307.203 533.947 313.018 503.399 316.115C480.34 318.453 457.444 322.661 434.357 324.446C419.028 325.632 398.714 326.402 384.141 320.568C368.414 314.273 375.523 299.951 383.134 289.572C394.834 273.616 413.145 266.018 427.526 253.125C435.023 246.404 442.897 240.906 449.861 233.545C455.097 228.01 460.12 222.234 465.391 216.789C472.952 208.976 472.377 194.025 473.34 183.886C474.218 174.642 474.669 164.931 474.423 155.636C473.805 132.239 472.302 109.537 476.27 86.2133Z" fill="white" fill-opacity="0.54"/>
</g>
<defs>
<filter id="filter0_f_140_3" x="0.0020752" y="-331.154" width="1024.86" height="966.214" filterUnits="userSpaceOnUse" color-interpolation-filters="sRGB">
<feFlood flood-opacity="0" result="BackgroundImageFix"/>
<feBlend mode="normal" in="SourceGraphic" in2="BackgroundImageFix" result="shape"/>
<feGaussianBlur stdDeviation="130" result="effect1_foregroundBlur_140_3"/>
</filter>
<filter id="filter1_f_140_3" x="114.742" y="-204.827" width="825.608" height="790.106" filterUnits="userSpaceOnUse" color-interpolation-filters="sRGB">
<feFlood flood-opacity="0" result="BackgroundImageFix"/>
<feBlend mode="normal" in="SourceGraphic" in2="BackgroundImageFix" result="shape"/>
<feGaussianBlur stdDeviation="130" result="effect1_foregroundBlur_140_3"/>
</filter>
</defs>
</svg>
