<svg width="626" height="672" viewBox="0 0 626 672" fill="none" xmlns="http://www.w3.org/2000/svg">
<g filter="url(#filter0_f_140_4)">
<path d="M28.7259 312.124C30.375 302.431 33.7257 287.174 39.5635 275.754C46.6844 269.091 54.8069 259.667 66.1152 260.967C78.6613 262.409 81.8608 287.264 88.0643 294.995C103.126 313.767 107.043 334.661 112.076 357.828C116.646 378.866 125.472 400.152 133.117 420.251C139.625 437.363 142.817 454.694 151.426 471.007C157.432 482.387 165.562 491.908 175.866 499.515C191.131 510.784 204.83 523.73 222.776 530.715C238.158 536.702 256.926 539.294 273.316 540.281C289.246 541.241 306.079 545.977 322.011 544.745C345.44 542.932 362.244 574.313 365.588 594.525C368.699 613.33 344.977 624.054 330.846 630.821C297.997 646.553 260.217 653.87 225.34 663.602C176.612 677.199 124.009 686.806 73.5435 691.922C35.4495 695.784 -2.37463 702.735 -40.515 705.685C-65.8372 707.644 -99.3961 708.916 -123.47 699.279C-149.451 688.878 -137.708 665.219 -125.135 648.072C-105.806 621.713 -75.5563 609.161 -51.7995 587.863C-39.4146 576.76 -26.4055 567.677 -14.902 555.517C-6.25173 546.372 2.04602 536.831 10.7532 527.835C23.245 514.928 22.2948 490.229 23.8857 473.479C25.3362 458.209 26.0813 442.166 25.6752 426.81C24.6531 388.158 22.1704 350.655 28.7259 312.124Z" fill="#1D0AFF" fill-opacity="0.71"/>
</g>
<g filter="url(#filter1_f_140_4)">
<path d="M50.27 389.213C51.2683 383.346 53.2965 374.11 56.8303 367.197C61.1408 363.164 66.0576 357.46 72.9028 358.246C80.4972 359.119 82.434 374.164 86.1891 378.844C95.3064 390.208 97.6777 402.855 100.724 416.879C103.491 429.614 108.833 442.499 113.461 454.665C117.4 465.024 119.332 475.514 124.544 485.389C128.179 492.278 133.1 498.041 139.338 502.646C148.578 509.467 156.871 517.304 167.734 521.532C177.045 525.156 188.406 526.725 198.327 527.323C207.97 527.904 218.16 530.771 227.803 530.025C241.986 528.928 252.158 547.923 254.182 560.158C256.065 571.541 241.705 578.033 233.151 582.129C213.267 591.652 190.398 596.081 169.286 601.972C139.79 610.203 107.947 616.018 77.3993 619.115C54.34 621.453 31.444 625.661 8.35661 627.446C-6.97163 628.632 -27.2857 629.402 -41.8586 623.568C-57.5855 617.273 -50.4768 602.951 -42.866 592.572C-31.1658 576.616 -12.8548 569.018 1.5258 556.125C9.0227 549.404 16.8975 543.906 23.8608 536.545C29.0971 531.01 34.1199 525.234 39.3906 519.789C46.9523 511.976 46.3771 497.025 47.3401 486.886C48.2181 477.642 48.6692 467.931 48.4233 458.636C47.8046 435.239 46.3018 412.537 50.27 389.213Z" fill="white" fill-opacity="0.5"/>
</g>
<defs>
<filter id="filter0_f_140_4" x="-398.998" y="0.845703" width="1024.86" height="966.214" filterUnits="userSpaceOnUse" color-interpolation-filters="sRGB">
<feFlood flood-opacity="0" result="BackgroundImageFix"/>
<feBlend mode="normal" in="SourceGraphic" in2="BackgroundImageFix" result="shape"/>
<feGaussianBlur stdDeviation="130" result="effect1_foregroundBlur_140_4"/>
</filter>
<filter id="filter1_f_140_4" x="-311.258" y="98.1729" width="825.608" height="790.106" filterUnits="userSpaceOnUse" color-interpolation-filters="sRGB">
<feFlood flood-opacity="0" result="BackgroundImageFix"/>
<feBlend mode="normal" in="SourceGraphic" in2="BackgroundImageFix" result="shape"/>
<feGaussianBlur stdDeviation="130" result="effect1_foregroundBlur_140_4"/>
</filter>
</defs>
</svg>
